<svg width="110" height="110" viewBox="0 0 110 110" fill="none" xmlns="http://www.w3.org/2000/svg">
<path d="M70.3333 35H40.3333C39.9651 35 39.6666 35.2985 39.6666 35.6667V45.6666H41V36.3333H69.6666V72.9999C69.673 73.3505 69.4025 73.6442 69.0526 73.6666C68.9953 73.6666 68.9379 73.6619 68.8806 73.6606C68.7626 73.6573 68.6446 73.6546 68.5286 73.6426C68.5186 73.6426 68.5093 73.6426 68.4993 73.6386C66.3219 73.4006 64.602 71.6823 64.3619 69.5053C64.3619 69.4959 64.3586 69.4859 64.3573 69.4766C64.3411 69.3182 64.3331 69.1591 64.3333 68.9999V67.6666C64.3333 67.2984 64.0348 66.9999 63.6666 66.9999H41V55H39.6666V66.9999H34.3333C33.9652 66.9999 33.6667 67.2984 33.6667 67.6666V68.9999C33.6703 72.3121 36.3545 74.9962 39.6666 74.9999H69.0666C70.1484 74.9716 71.0083 74.0821 70.9999 72.9999V35.6667C70.9999 35.2985 70.7014 35 70.3333 35ZM39.6666 73.6666C37.0906 73.6637 35.0029 71.576 35 68.9999V68.3333H62.9999V68.9999C63.0009 69.2198 63.0135 69.4394 63.0379 69.6579C63.0439 69.7159 63.0553 69.7719 63.0633 69.8293C63.0853 69.9906 63.1119 70.1513 63.1473 70.3093C63.1593 70.3646 63.1746 70.4193 63.1886 70.4746C63.2293 70.6353 63.2753 70.7933 63.3286 70.9493C63.3439 70.9939 63.3599 71.0379 63.3766 71.0826C63.4373 71.2479 63.5059 71.4093 63.5813 71.5686C63.5973 71.6013 63.6119 71.6353 63.6279 71.6653C63.7115 71.8342 63.8033 71.9983 63.9033 72.1579C63.9166 72.1793 63.9286 72.2013 63.9419 72.2246C64.0506 72.3948 64.1679 72.5595 64.2933 72.7179L64.3146 72.7466C64.4601 72.9293 64.6159 73.1036 64.7813 73.2686C64.9248 73.4108 65.0737 73.5442 65.2279 73.6686L39.6666 73.6666Z" fill="#4985FF"/>
<path d="M53 53.6666C53.1768 53.6666 53.3463 53.5963 53.4713 53.4713L56.1379 50.8046C56.3982 50.5443 56.3982 50.1223 56.1379 49.862L53.4713 47.1953C53.3463 47.0703 53.1768 47 53 47H34.3333C32.4924 47 31 48.4924 31 50.3333C31 52.1742 32.4924 53.6666 34.3333 53.6666H53ZM52.828 48.4373L54.7239 50.3333L52.828 52.2293L52.354 50.3333L52.828 48.4373ZM36.3333 48.3333H51.48L51.1466 49.6666H37.6667V51H51.1466L51.48 52.3333H36.3333V48.3333ZM32.3333 50.3333C32.3333 49.2287 33.2287 48.3333 34.3333 48.3333H35V52.3333H34.3333C33.2287 52.3333 32.3333 51.4379 32.3333 50.3333Z" fill="#4985FF"/>
<path d="M46.3333 63.6666H66.3333C66.7014 63.6666 66.9999 63.3681 66.9999 63V43C66.9998 42.6319 66.7013 42.3334 66.3331 42.3335C66.1563 42.3335 65.9869 42.4038 65.8619 42.5287L45.862 62.5286C45.6016 62.789 45.6017 63.2111 45.8621 63.4715C45.9871 63.5964 46.1566 63.6666 46.3333 63.6666ZM65.6666 44.6093V46.3333H64.3333V47.6667H65.6666V49H64.3333V50.3333H65.6666V51.6667H64.3333V53H65.6666V54.3333H64.3333V55.6667H65.6666V57H64.3333V58.3333H65.6666V59.6666H64.3333V61H65.6666V62.3333H64.3333V61H62.9999V62.3333H61.6666V61H60.3333V62.3333H58.9999V61H57.6666V62.3333H56.3333V61H55V62.3333H53.6666V61H52.3333V62.3333H51V61H49.6666V62.3333H47.9426L65.6666 44.6093Z" fill="#4985FF"/>
<path d="M55.9899 59.6666H62.3333C62.7014 59.6666 62.9999 59.3681 62.9999 59V52.6567C62.9999 52.2885 62.7014 51.9901 62.3331 51.9902C62.1564 51.9902 61.9869 52.0604 61.8619 52.1853L55.5186 58.5286C55.2583 58.7891 55.2584 59.2111 55.5188 59.4715C55.6438 59.5964 55.8132 59.6666 55.9899 59.6666ZM61.6666 54.2667V58.3333H57.5999L61.6666 54.2667Z" fill="#4985FF"/>
<path d="M61.6666 39H48.3333V40.3333H61.6666V39Z" fill="#4985FF"/>
<path d="M63.6666 41.6666H46.3333V43H63.6666V41.6666Z" fill="#4985FF"/>
<path d="M46.3333 55.6666H42.3333V57H46.3333V55.6666Z" fill="#4985FF"/>
<path d="M45 58.3333H42.3333V59.6666H45V58.3333Z" fill="#4985FF"/>
<circle cx="55" cy="55" r="44.5" stroke="#4985FF"/>
<circle cx="55" cy="55" r="54.5" stroke="#E0E0E0"/>
</svg>
